<svg width="30" height="30" viewBox="0 0 30 30" fill="none" xmlns="http://www.w3.org/2000/svg">
<path d="M25.4439 24.88C24.3986 24.88 23.5213 24.544 22.8119 23.872C22.1026 23.1813 21.7479 22.304 21.7479 21.24C21.7479 20.1573 22.1026 19.2893 22.8119 18.636C23.5213 17.9827 24.3986 17.656 25.4439 17.656C26.4893 17.656 27.3666 17.9827 28.0759 18.636C28.7853 19.2893 29.1399 20.1573 29.1399 21.24C29.1399 22.304 28.7853 23.1813 28.0759 23.872C27.3666 24.544 26.4893 24.88 25.4439 24.88Z" fill="#BA9DF7"/>
<path d="M12.712 5H19.32V24.6H12.712V5ZM6.608 24.6H0V5H6.608V24.6ZM13.16 17.376H6.16V11.944H13.16V17.376Z" fill="#BA9DF7"/>
</svg>
