<svg width="24" height="24" viewBox="0 0 24 24" fill="none" xmlns="http://www.w3.org/2000/svg">
<g id="illustrator">
<path id="Vector" d="M10.41 9.47998C10.76 10.62 11.12 11.76 11.48 12.92H9.35999C9.71999 11.76 10.06 10.62 10.41 9.47998Z" fill="#BBBBBB"/>
<path id="Vector_2" d="M17 2H7C5.67392 2 4.40215 2.52678 3.46447 3.46447C2.52678 4.40215 2 5.67392 2 7V17C2 18.3261 2.52678 19.5979 3.46447 20.5355C4.40215 21.4732 5.67392 22 7 22H17C18.3261 22 19.5979 21.4732 20.5355 20.5355C21.4732 19.5979 22 18.3261 22 17V7C22 5.67392 21.4732 4.40215 20.5355 3.46447C19.5979 2.52678 18.3261 2 17 2ZM14.49 16.78H12.93C12.8678 16.7886 12.8046 16.7725 12.7542 16.7351C12.7037 16.6977 12.6699 16.642 12.66 16.58C12.47 16.02 12.27 15.46 12.08 14.89C12.074 14.8543 12.0609 14.8201 12.0414 14.7895C12.022 14.759 11.9965 14.7326 11.9667 14.7121C11.9368 14.6916 11.9031 14.6773 11.8676 14.67C11.8321 14.6628 11.7955 14.6628 11.76 14.67H9.1C9.06306 14.6613 9.02469 14.6605 8.98741 14.6676C8.95012 14.6747 8.91476 14.6896 8.88362 14.7113C8.85248 14.733 8.82626 14.761 8.80669 14.7935C8.78711 14.826 8.77461 14.8623 8.77 14.9C8.6 15.46 8.41 16 8.24 16.56C8.23524 16.5953 8.22327 16.6293 8.20483 16.6598C8.18639 16.6903 8.16187 16.7167 8.1328 16.7374C8.10372 16.758 8.07072 16.7724 8.03583 16.7798C8.00094 16.7871 7.96492 16.7872 7.93 16.78H6.56C6.32 16.78 6.3 16.78 6.38 16.53L8.54 10.3C8.74 9.73 8.94 9.16 9.12 8.59C9.17091 8.42127 9.19784 8.24623 9.2 8.07C9.2 7.86 9.28 7.81 9.47 7.82H11.38C11.52 7.82 11.59 7.82 11.64 8.01L14.1 14.94C14.29 15.48 14.48 16.01 14.66 16.54C14.74 16.76 14.73 16.78 14.49 16.78ZM17.55 16.61C17.55 16.78 17.48 16.83 17.32 16.83H15.88C15.68 16.83 15.63 16.75 15.63 16.57V10.29C15.63 10.09 15.69 10.01 15.9 10.02H17.31C17.47 10.02 17.55 10.02 17.55 10.24C17.543 12.36 17.543 14.483 17.55 16.61ZM16.55 9.31C16.4067 9.3191 16.2631 9.29723 16.1291 9.2459C15.995 9.19456 15.8735 9.11495 15.7729 9.01248C15.6724 8.91001 15.595 8.78709 15.5462 8.65206C15.4974 8.51704 15.4782 8.37309 15.49 8.23C15.4914 8.08781 15.5211 7.94732 15.5774 7.81673C15.6337 7.68615 15.7154 7.56807 15.8178 7.4694C15.9202 7.37073 16.0412 7.29344 16.1738 7.24204C16.3064 7.19063 16.4479 7.16614 16.59 7.17C16.7283 7.16956 16.8653 7.19782 16.9921 7.253C17.119 7.30818 17.233 7.38908 17.327 7.49059C17.421 7.59209 17.4929 7.71199 17.5381 7.84271C17.5834 7.97342 17.6011 8.11211 17.59 8.25C17.5982 8.38628 17.5784 8.5228 17.5318 8.65113C17.4852 8.77947 17.4129 8.89691 17.3192 8.99622C17.2255 9.09553 17.1125 9.1746 16.9871 9.22857C16.8617 9.28253 16.7265 9.31025 16.59 9.31H16.55Z" fill="#BBBBBB"/>
<path id="Vector_3" d="M11.48 12.92H9.35999C9.71999 11.76 10.06 10.62 10.36 9.47998C10.76 10.62 11.12 11.76 11.48 12.92Z" fill="#BBBBBB"/>
</g>
</svg>
