<svg width="24" height="24" viewBox="0 0 24 24" fill="none" xmlns="http://www.w3.org/2000/svg">
<path fill-rule="evenodd" clip-rule="evenodd" d="M8.667 9.417C8.3278 9.417 7.99191 9.48381 7.67853 9.61362C7.36515 9.74343 7.0804 9.93369 6.84055 10.1735C6.60069 10.4134 6.41043 10.6981 6.28062 11.0115C6.15081 11.3249 6.084 11.6608 6.084 12C6.084 12.3392 6.15081 12.6751 6.28062 12.9885C6.41043 13.3019 6.60069 13.5866 6.84055 13.8265C7.0804 14.0663 7.36515 14.2566 7.67853 14.3864C7.99191 14.5162 8.3278 14.583 8.667 14.583H11.25V12.052C11.2496 12.0173 11.2496 11.9827 11.25 11.948V9.417H8.667ZM11.25 7.917H8.667C7.98181 7.917 7.32469 7.64481 6.84019 7.16031C6.35569 6.67581 6.0835 6.01869 6.0835 5.3335C6.0835 4.64831 6.35569 3.99119 6.84019 3.50669C7.32469 3.02219 7.98181 2.75 8.667 2.75H11.25V7.917ZM12.75 2.75V7.917H15.333C16.0094 7.90369 16.6536 7.62565 17.1272 7.1426C17.6009 6.65955 17.8662 6.01002 17.8662 5.3335C17.8662 4.65698 17.6009 4.00745 17.1272 3.5244C16.6536 3.04135 16.0094 2.76331 15.333 2.75H12.75ZM15.333 9.416C14.655 9.41591 14.0041 9.68242 13.5209 10.158C13.0376 10.6336 12.7608 11.2801 12.75 11.958V12.041C12.7583 12.55 12.9168 13.0452 13.2056 13.4644C13.4944 13.8836 13.9006 14.2081 14.3733 14.3972C14.8459 14.5863 15.3639 14.6315 15.8622 14.5271C16.3604 14.4228 16.8167 14.1735 17.1738 13.8107C17.5308 13.4478 17.7727 12.9875 17.869 12.4877C17.9653 11.9878 17.9118 11.4706 17.7151 11.0011C17.5184 10.5315 17.1874 10.1306 16.7636 9.84857C16.3398 9.56656 15.8421 9.41607 15.333 9.416ZM8.667 16.083C8.15589 16.0828 7.6562 16.2342 7.23114 16.518C6.80607 16.8018 6.47471 17.2053 6.27898 17.6775C6.08325 18.1496 6.03194 18.6692 6.13153 19.1705C6.23112 19.6718 6.47715 20.1323 6.83848 20.4938C7.19982 20.8553 7.66025 21.1015 8.16152 21.2013C8.6628 21.3011 9.1824 21.2499 9.65462 21.0544C10.1268 20.8589 10.5305 20.5277 10.8145 20.1027C11.0984 19.6777 11.25 19.1781 11.25 18.667V16.083H8.667Z" fill="#BBBBBB"/>
</svg>
