<svg width="35" height="40" viewBox="0 0 35 40" fill="none" xmlns="http://www.w3.org/2000/svg">
<g id="behance">
<path id="Vector" d="M13.3996 24.1786C14.5513 24.1786 15.4888 23.7701 15.4888 22.4777C15.4888 21.1585 14.7054 20.6429 13.4598 20.6362H10.3795V24.1786H13.3996ZM13.0379 15.5H10.3862V18.5H13.2455C14.2567 18.5 14.9732 18.058 14.9732 16.9665C14.9732 15.7812 14.0558 15.5 13.0379 15.5ZM21.7098 20.5089H25.875C25.7612 19.2701 25.1183 18.5201 23.8326 18.5201C22.6071 18.5201 21.7902 19.2835 21.7098 20.5089ZM28.7143 5H7.28571C4.92188 5 3 6.92188 3 9.28571V30.7143C3 33.0781 4.92188 35 7.28571 35H28.7143C31.0781 35 33 33.0781 33 30.7143V9.28571C33 6.92188 31.0781 5 28.7143 5ZM26.404 15.2455H21.1942V13.9799H26.404V15.2455ZM15.971 19.1763C17.5513 19.625 18.3147 21.0179 18.3147 22.6317C18.3147 25.2433 16.125 26.3616 13.7879 26.375H7.55357V13.5179H13.6138C15.817 13.5179 17.7254 14.1406 17.7254 16.6987C17.7254 17.9911 17.1228 18.6272 15.971 19.1763ZM23.9196 16.5915C26.8326 16.5915 28.4464 18.8884 28.4464 21.6406C28.4464 21.7478 28.4397 21.8616 28.433 21.9754C28.433 22.029 28.4263 22.0759 28.4263 22.1228H21.7165C21.7165 23.6094 22.5 24.4866 24 24.4866C24.7768 24.4866 25.7746 24.0714 26.0223 23.2746H28.279C27.5826 25.4107 26.1429 26.4085 23.9196 26.4085C20.9866 26.4085 19.1585 24.4196 19.1585 21.5201C19.1585 18.721 21.0804 16.5915 23.9196 16.5915Z" fill="#929292"/>
</g>
</svg>
