<svg width="31" height="21" viewBox="0 0 31 21" fill="none" xmlns="http://www.w3.org/2000/svg">
<path d="M13.6641 0.399999H20.2721V20H13.6641V0.399999ZM7.56009 20H0.952094V0.399999H7.56009V20ZM14.1121 12.776H7.11209V7.344H14.1121V12.776ZM26.396 20.28C25.3507 20.28 24.4733 19.944 23.764 19.272C23.0547 18.5813 22.7 17.704 22.7 16.64C22.7 15.5573 23.0547 14.6893 23.764 14.036C24.4733 13.3827 25.3507 13.056 26.396 13.056C27.4413 13.056 28.3187 13.3827 29.028 14.036C29.7373 14.6893 30.092 15.5573 30.092 16.64C30.092 17.704 29.7373 18.5813 29.028 19.272C28.3187 19.944 27.4413 20.28 26.396 20.28Z" fill="#656565"/>
</svg>
