<svg width="18" height="18" viewBox="0 0 18 18" fill="none" xmlns="http://www.w3.org/2000/svg">
<g id="lcon-dark">
<path id="Vector" d="M7.33318 2.52591C6.80831 3.66527 6.64525 4.93812 6.86594 6.173C7.08664 7.40787 7.6805 8.54545 8.56753 9.43247C9.45455 10.3195 10.5921 10.9134 11.827 11.1341C13.0619 11.3548 14.3347 11.1917 15.4741 10.6668C14.7964 13.7186 12.0739 16 8.81818 16C5.0525 16 2 12.9475 2 9.18182C2 5.92614 4.28136 3.20364 7.33318 2.52591ZM13.0209 2.56205L13.5909 2.70455V3.38636L13.0209 3.52886C12.7812 3.58882 12.5623 3.71279 12.3875 3.88752C12.2128 4.06225 12.0888 4.28118 12.0289 4.52091L11.8864 5.09091H11.2045L11.062 4.52091C11.0021 4.28118 10.8781 4.06225 10.7034 3.88752C10.5287 3.71279 10.3097 3.58882 10.07 3.52886L9.5 3.38636V2.70455L10.07 2.56205C10.3096 2.50198 10.5284 2.37797 10.703 2.20324C10.8776 2.02851 11.0015 1.80964 11.0614 1.57L11.2045 1H11.8864L12.0289 1.57C12.0888 1.80973 12.2128 2.02866 12.3875 2.20339C12.5623 2.37812 12.7812 2.50209 13.0209 2.56205ZM16.43 5.97114L17 6.11364V6.79545L16.43 6.93795C16.1903 6.99791 15.9713 7.12188 15.7966 7.29661C15.6219 7.47134 15.4979 7.69027 15.438 7.93L15.2955 8.5H14.6136L14.4711 7.93C14.4112 7.69027 14.2872 7.47134 14.1125 7.29661C13.9377 7.12188 13.7188 6.99791 13.4791 6.93795L12.9091 6.79545V6.11364L13.4791 5.97114C13.7188 5.91118 13.9377 5.78721 14.1125 5.61248C14.2872 5.43775 14.4112 5.21882 14.4711 4.97909L14.6136 4.40909H15.2955L15.438 4.97909C15.4979 5.21882 15.6219 5.43775 15.7966 5.61248C15.9713 5.78721 16.1903 5.91118 16.43 5.97114Z" fill="white"/>
</g>
</svg>
