<svg width="40" height="40" viewBox="0 0 40 40" fill="none" xmlns="http://www.w3.org/2000/svg">
<path fill-rule="evenodd" clip-rule="evenodd" d="M10 5C7.23858 5 5 7.23858 5 10V30C5 32.7614 7.23858 35 10 35H30C32.7614 35 35 32.7614 35 30V10C35 7.23858 32.7614 5 30 5H10ZM30.8333 21.9999V30.8332H26.1833V22.6166C26.1833 21.9977 25.9375 21.4042 25.4999 20.9667C25.0623 20.5291 24.4688 20.2832 23.85 20.2832C22.5667 20.2832 21.5333 21.3332 21.5333 22.6166V30.8332H16.8833V16.8832H21.5333V18.7332C22.3333 17.4332 23.9833 16.5666 25.4 16.5666C26.841 16.5666 28.223 17.139 29.2419 18.158C30.2609 19.1769 30.8333 20.5589 30.8333 21.9999ZM13.4466 13.4465C12.9215 13.9716 12.2093 14.2666 11.4667 14.2666C9.91666 14.2666 8.64999 13.0166 8.64999 11.4666C8.64999 10.7195 8.94675 10.0031 9.47498 9.47488C10.0032 8.94666 10.7196 8.6499 11.4667 8.6499C13.0167 8.6499 14.2667 9.91657 14.2667 11.4666C14.2667 12.2092 13.9717 12.9214 13.4466 13.4465ZM13.7833 16.8832V30.8332H9.16666V16.8832H13.7833Z" fill="#929292"/>
</svg>
