<svg width="40" height="40" viewBox="0 0 40 40" fill="none" xmlns="http://www.w3.org/2000/svg">
<g id="mail">
<path id="Vector" d="M6.66668 33.3334C5.75001 33.3334 4.96557 33.0073 4.31334 32.3551C3.66112 31.7029 3.33445 30.9179 3.33334 30.0001V10.0001C3.33334 9.08341 3.66001 8.29897 4.31334 7.64675C4.96668 6.99453 5.75112 6.66786 6.66668 6.66675H33.3333C34.25 6.66675 35.035 6.99341 35.6883 7.64675C36.3417 8.30008 36.6678 9.08453 36.6667 10.0001V30.0001C36.6667 30.9167 36.3406 31.7017 35.6883 32.3551C35.0361 33.0084 34.2511 33.3345 33.3333 33.3334H6.66668ZM20 21.6667L33.3333 13.3334V10.0001L20 18.3334L6.66668 10.0001V13.3334L20 21.6667Z" fill="#929292"/>
</g>
</svg>
