<svg width="40" height="40" viewBox="0 0 40 40" fill="none" xmlns="http://www.w3.org/2000/svg">
<path d="M17.7688 22.2574C17.7688 21.4886 18.1381 20.2661 21.0069 20.2661C21.8863 20.2661 22.4281 20.3299 23.1556 20.493C22.9231 23.5042 21.4494 23.9017 20.0169 23.9017C19.2331 23.9017 17.7688 23.493 17.7688 22.2574Z" fill="#929292"/>
<path d="M9.85625 35H30.1437C31.4317 35 32.6669 34.4884 33.5776 33.5776C34.4884 32.6669 35 31.4317 35 30.1437V9.85625C35 8.56829 34.4884 7.33309 33.5776 6.42236C32.6669 5.51164 31.4317 5 30.1437 5H9.85625C8.56829 5 7.33309 5.51164 6.42236 6.42236C5.51164 7.33309 5 8.56829 5 9.85625V30.1437C5 31.4317 5.51164 32.6669 6.42236 33.5776C7.33309 34.4884 8.56829 35 9.85625 35ZM15.9988 16.0812C17.0619 14.5625 18.4644 13.97 20.405 13.97C21.7737 13.97 22.9381 14.4312 23.7706 15.3031C24.6012 16.1769 25.0756 17.4256 25.1844 19.0213C25.6444 19.2138 26.0681 19.4406 26.4556 19.7019C28.0156 20.75 28.8744 22.3175 28.8744 24.1138C28.8744 27.9331 25.7431 31.25 20.0769 31.25C15.2113 31.25 10.1562 28.4187 10.1562 19.9925C10.1562 11.6113 15.0519 8.75 20.0619 8.75C22.3756 8.75 27.8037 9.09125 29.8438 15.8319L27.9312 16.3269C26.3525 11.5269 23.0431 10.7619 20.0112 10.7619C14.9956 10.7619 12.1606 13.8144 12.1606 20.3113C12.1606 26.1369 15.3294 29.2306 20.0769 29.2306C23.9825 29.2306 26.8944 27.2019 26.8944 24.23C26.8944 22.2069 25.1956 21.2394 25.1075 21.2394C24.7756 22.9738 23.8869 25.8931 19.9831 25.8931C17.7088 25.8931 15.7456 24.3219 15.7456 22.2631C15.7456 19.3231 18.5356 18.2581 20.7388 18.2581C21.5638 18.2581 22.5575 18.3144 23.0769 18.4194C23.0769 17.5231 22.3194 15.9894 20.4031 15.9894C18.695 15.9894 18.2281 16.5294 17.6844 17.1594L17.6394 17.21C17.2606 16.9569 15.9988 16.0812 15.9988 16.0812Z" fill="#929292"/>
</svg>
