<svg width="24" height="24" viewBox="0 0 24 24" fill="none" xmlns="http://www.w3.org/2000/svg">
<path d="M17.1207 3H15.2883C15.116 2.99991 14.9465 3.04306 14.7953 3.1255C14.6441 3.20793 14.516 3.32702 14.4228 3.47182L11.9732 7.28206L9.52352 3.47182C9.43041 3.32721 9.30253 3.20825 9.15158 3.12583C9.00063 3.0434 8.83142 3.00014 8.65942 3H2.02922C1.84793 2.99991 1.66984 3.04772 1.51297 3.13861C1.35611 3.22949 1.22605 3.36022 1.13597 3.51755C1.04589 3.67487 0.998991 3.85321 1.00002 4.0345C1.00104 4.21579 1.04996 4.39358 1.14181 4.54988L11.0857 21.4916C11.1765 21.6464 11.3061 21.7747 11.4618 21.8639C11.6175 21.9531 11.7937 22 11.9732 22C12.1526 22 12.3288 21.9531 12.4845 21.8639C12.6402 21.7747 12.7698 21.6464 12.8606 21.4916L22.8045 4.54988C22.8963 4.39358 22.9453 4.21579 22.9463 4.0345C22.9473 3.85321 22.9004 3.67487 22.8103 3.51755C22.7203 3.36022 22.5902 3.22949 22.4333 3.13861C22.2765 3.04772 22.0984 2.99991 21.9171 3H17.1399H17.1207ZM6.22625 5.05737L11.9732 14.9094L17.7201 5.05737H20.1203L11.9732 18.9377L3.82599 5.05737H6.22625Z" fill="#BBBBBB"/>
</svg>
