<svg width="24" height="24" viewBox="0 0 24 24" fill="none" xmlns="http://www.w3.org/2000/svg">
<path fill-rule="evenodd" clip-rule="evenodd" d="M17.8335 3.26957C16.1068 2.11581 14.0767 1.5 12 1.5C9.21523 1.5 6.54451 2.60625 4.57538 4.57538C2.60625 6.54451 1.5 9.21523 1.5 12C1.5 14.0767 2.11581 16.1068 3.26957 17.8335C4.42332 19.5602 6.0632 20.906 7.98182 21.7007C9.90045 22.4955 12.0116 22.7034 14.0484 22.2982C16.0852 21.8931 17.9562 20.8931 19.4246 19.4246C20.8931 17.9562 21.8931 16.0852 22.2982 14.0484C22.7034 12.0116 22.4955 9.90045 21.7007 7.98182C20.906 6.0632 19.5602 4.42332 17.8335 3.26957ZM12.0922 4.5555C15.0187 3.519 18.111 4.1295 18.5865 5.994C19.0537 7.82775 17.4622 10.0215 15.4215 10.8082C14.1805 11.3488 12.8008 11.4853 11.478 11.1982C11.222 11.1279 10.9825 11.0071 10.7738 10.8431C10.565 10.679 10.3911 10.4749 10.2622 10.2427L10.2602 10.2375C10.221 10.135 10.1568 9.96725 10.2622 9.909C10.3282 9.873 10.3545 9.88125 10.5315 10.0762C10.8225 10.3197 11.1646 10.4946 11.5325 10.5878C11.9003 10.681 12.2844 10.6902 12.6562 10.6147C16.0207 10.2375 18.0472 7.62375 17.4067 6.21675C16.9582 5.232 14.3647 4.78725 11.1247 6.402C7.17299 8.373 6.95849 9.9975 6.92474 10.6147C6.86095 11.7884 7.88701 12.5776 8.91749 13.3702C9.37724 13.7238 9.83787 14.0781 10.203 14.4675L10.284 14.5575C10.815 14.3922 11.3698 14.3161 11.9257 14.3325C13.8397 14.3002 14.9205 15.5647 14.8762 16.6897C14.8581 16.9794 14.7527 17.2568 14.5738 17.4853C14.395 17.7138 14.151 17.8828 13.8742 17.97C13.764 17.9887 13.7047 17.9917 13.689 17.9055C13.6777 17.8455 13.7175 17.8185 13.8465 17.7382C13.9974 17.6507 14.1277 17.5318 14.2285 17.3894C14.3293 17.247 14.3983 17.0846 14.4307 16.9132C14.4997 16.4317 14.1382 15.282 12.2962 15.0667C11.7596 14.9936 11.2138 15.0249 10.689 15.159C10.8838 15.6857 10.9533 16.2506 10.8919 16.8088C10.8304 17.367 10.6398 17.9033 10.335 18.375C9.9665 18.9573 9.42494 19.4097 8.7863 19.6686C8.14766 19.9276 7.44398 19.98 6.77399 19.8187C6.32774 19.695 5.65499 18.774 6.23549 17.49C6.78749 16.275 9.13949 15.0832 9.46049 14.925V14.9197C9.18736 14.6846 8.81623 14.4289 8.40748 14.1474C7.18538 13.3055 5.627 12.232 5.34599 10.782C5.24024 10.2337 5.49749 8.92125 7.10924 7.41375C8.56611 6.14256 10.2594 5.17127 12.0922 4.5555ZM9.89174 17.0662C10.0542 16.5569 10.0617 16.0109 9.91349 15.4972L9.81824 15.5497C9.13287 15.8879 8.50636 16.3341 7.96274 16.8712C7.25549 17.619 7.05824 18.5572 7.45274 18.786C7.81799 18.9982 8.67074 18.7462 9.28049 18.081C9.47528 17.8697 9.6387 17.6315 9.76574 17.3737C9.79024 17.3257 9.81299 17.2757 9.83399 17.2237C9.85499 17.1717 9.87424 17.1192 9.89174 17.0662Z" fill="#BBBBBB"/>
</svg>
