<svg width="24" height="24" viewBox="0 0 24 24" fill="none" xmlns="http://www.w3.org/2000/svg">
<path d="M16.2945 20.88C16.0677 20.9896 15.8123 21.0256 15.564 20.9828C15.3157 20.94 15.0871 20.8207 14.91 20.6415L7.224 13.5945L3.876 16.149C3.7251 16.2638 3.53872 16.322 3.34932 16.3135C3.15993 16.305 2.97951 16.2303 2.8395 16.1025L1.7655 15.12C1.68199 15.0431 1.61534 14.9498 1.56974 14.8459C1.52415 14.742 1.50061 14.6297 1.50061 14.5162C1.50061 14.4028 1.52415 14.2905 1.56974 14.1866C1.61534 14.0827 1.68199 13.9893 1.7655 13.9125L4.668 11.25L1.7655 8.58749C1.68199 8.51064 1.61534 8.41731 1.56974 8.31339C1.52415 8.20947 1.50061 8.09722 1.50061 7.98374C1.50061 7.87026 1.52415 7.75801 1.56974 7.65409C1.61534 7.55017 1.68199 7.45684 1.7655 7.37999L2.8395 6.39749C2.97969 6.26988 3.1602 6.19549 3.3496 6.18727C3.53899 6.17905 3.72527 6.23751 3.876 6.35249L7.224 8.90549L14.91 1.85999C15.0878 1.68199 15.3165 1.5636 15.5645 1.52114C15.8125 1.47869 16.0676 1.51428 16.2945 1.62299L20.31 3.56399C20.7315 3.76799 21 4.19699 21 4.66799V12H16.128V6.80099L10.296 11.25L16.128 15.699V12H21V17.8335C21 18.3045 20.7315 18.7335 20.31 18.9375L16.2945 20.88Z" fill="#BBBBBB"/>
</svg>
